<svg width="63" height="64" xmlns="http://www.w3.org/2000/svg" xmlns:xlink="http://www.w3.org/1999/xlink" xml:space="preserve" overflow="hidden"><defs><linearGradient x1="36.4716" y1="43.7919" x2="53.7584" y2="58.2604" gradientUnits="userSpaceOnUse" spreadMethod="pad" id="fill0"><stop offset="0" stop-color="#224F87"/><stop offset="1" stop-color="#0055C6"/></linearGradient><linearGradient x1="54.4319" y1="34.6391" x2="46.9335" y2="35.5795" gradientUnits="userSpaceOnUse" spreadMethod="pad" id="fill1"><stop offset="0" stop-color="#0059C5" stop-opacity="0.6"/><stop offset="1" stop-color="#0059C5" stop-opacity="0"/></linearGradient><radialGradient cx="0" cy="0" r="1" gradientUnits="userSpaceOnUse" spreadMethod="pad" id="fill2" gradientTransform="matrix(16.478 20.6978 -18.6727 14.8658 23.9169 33.2246)"><stop offset="0" stop-color="#041642" stop-opacity="0.5"/><stop offset="1" stop-color="#041642" stop-opacity="0"/></radialGradient><radialGradient cx="0" cy="0" r="1" gradientUnits="userSpaceOnUse" spreadMethod="pad" id="fill3" gradientTransform="matrix(-6.88787 33.9521 -37.7923 -7.66697 33.2458 3.46438)"><stop offset="0" stop-color="#66DFFF"/><stop offset="1" stop-color="#0296E6"/></radialGradient><radialGradient cx="0" cy="0" r="1" gradientUnits="userSpaceOnUse" spreadMethod="pad" id="fill4" gradientTransform="matrix(17.0012 0 0 26.7238 18.6858 20.5614)"><stop offset="0" stop-color="#000000" stop-opacity="0.25"/><stop offset="1" stop-color="#000000" stop-opacity="0"/></radialGradient><radialGradient cx="0" cy="0" r="1" gradientUnits="userSpaceOnUse" spreadMethod="pad" id="fill5" gradientTransform="matrix(8.89409 -0.46808 1.29734 24.6512 25.399 20.1247)"><stop offset="0" stop-color="#000000" stop-opacity="0.25"/><stop offset="1" stop-color="#000000" stop-opacity="0"/></radialGradient><radialGradient cx="0" cy="0" r="1" gradientUnits="userSpaceOnUse" spreadMethod="pad" id="fill6" gradientTransform="matrix(3.92336 7.85997 -17.5158 8.74309 13.1931 40.5606)"><stop offset="0" stop-color="#000000" stop-opacity="0.25"/><stop offset="1" stop-color="#000000" stop-opacity="0"/></radialGradient><linearGradient x1="28.3634" y1="54.5338" x2="17.7912" y2="40.4904" gradientUnits="userSpaceOnUse" spreadMethod="pad" id="fill7"><stop offset="0" stop-color="#0086E2" stop-opacity="0.6"/><stop offset="1" stop-color="#0086E2" stop-opacity="0"/></linearGradient><linearGradient x1="-5.02846" y1="16.8934" x2="6.91169" y2="37.3749" gradientUnits="userSpaceOnUse" spreadMethod="pad" id="fill8"><stop offset="0" stop-color="#CDFAFF"/><stop offset="1" stop-color="#45DDFB"/></linearGradient></defs><g transform="translate(-582 -577)"><path d="M33.1102 8.16887C20.9521 8.16887 11.0902 20.2199 11.0902 29.1525L11.0902 56.6646C11.0902 59.122 13.6528 61.1093 16.8088 61.1093L49.4062 61.1093C52.5677 61.1093 55.1247 59.1176 55.1247 56.6646L55.1247 24.3397C55.1247 15.4072 45.2684 8.16887 33.1102 8.16887Z" fill="url(#fill0)" transform="matrix(1 0 0 1.01587 582 577)"/><path d="M33.1102 8.16887C20.9521 8.16887 11.0902 20.2199 11.0902 29.1525L11.0902 56.6646C11.0902 59.122 13.6528 61.1093 16.8088 61.1093L49.4062 61.1093C52.5677 61.1093 55.1247 59.1176 55.1247 56.6646L55.1247 24.3397C55.1247 15.4072 45.2684 8.16887 33.1102 8.16887Z" fill="url(#fill1)" transform="matrix(1 0 0 1.01587 582 577)"/><path d="M33.1102 8.16887C20.9521 8.16887 11.0902 20.2199 11.0902 29.1525L11.0902 56.6646C11.0902 59.122 13.6528 61.1093 16.8088 61.1093L49.4062 61.1093C52.5677 61.1093 55.1247 59.1176 55.1247 56.6646L55.1247 24.3397C55.1247 15.4072 45.2684 8.16887 33.1102 8.16887Z" fill="url(#fill2)" transform="matrix(1 0 0 1.01587 582 577)"/><path d="M27.6048 4.99639C18.4872 10.2568 11.0934 19.8482 11.0934 31.0669L11.0902 56.9174C11.0902 61.1093 16.282 61.8081 18.6824 60.4107L39.8272 47.8221C42.1954 46.4558 44.1161 43.4716 44.1161 41.155L44.1161 21.2857C44.1161 8.70968 36.7224-0.260894 27.6048 4.99639Z" fill="url(#fill3)" transform="matrix(1 0 4.22942e-17 1.01587 582 577)"/><path d="M27.6048 4.99639C18.4872 10.2568 11.0934 19.8482 11.0934 31.0669L11.0902 56.9174C11.0902 61.1093 16.282 61.8081 18.6824 60.4107L39.8272 47.8221C42.1954 46.4558 44.1161 43.4716 44.1161 41.155L44.1161 21.2857C44.1161 8.70968 36.7224-0.260894 27.6048 4.99639Z" fill="url(#fill4)" transform="matrix(1 0 0 1.01587 582 577)"/><path d="M27.6048 4.99639C18.4872 10.2568 11.0934 19.8482 11.0934 31.0669L11.0902 56.9174C11.0902 61.1093 16.282 61.8081 18.6824 60.4107L39.8272 47.8221C42.1954 46.4558 44.1161 43.4716 44.1161 41.155L44.1161 21.2857C44.1161 8.70968 36.7224-0.260894 27.6048 4.99639Z" fill="url(#fill5)" transform="matrix(1 -1.05736e-17 1.05736e-17 1.01587 582 577)"/><path d="M27.6048 4.99639C18.4872 10.2568 11.0934 19.8482 11.0934 31.0669L11.0902 56.9174C11.0902 61.1093 16.282 61.8081 18.6824 60.4107L39.8272 47.8221C42.1954 46.4558 44.1161 43.4716 44.1161 41.155L44.1161 21.2857C44.1161 8.70968 36.7224-0.260894 27.6048 4.99639Z" fill="url(#fill6)" transform="matrix(1 0 0 1.01587 582 577)"/><path d="M27.6048 4.99639C18.4872 10.2568 11.0934 19.8482 11.0934 31.0669L11.0902 56.9174C11.0902 61.1093 16.282 61.8081 18.6824 60.4107L39.8272 47.8221C42.1954 46.4558 44.1161 43.4716 44.1161 41.155L44.1161 21.2857C44.1161 8.70968 36.7224-0.260894 27.6048 4.99639Z" fill="url(#fill7)" transform="matrix(1 0 0 1.01587 582 577)"/><path d="M21.2937 2.4011C14.3841 4.94944 7.87848 16.3997 7.87848 28.8763L7.875 40.0572C7.875 42.8044 9.95846 43.7177 12.5275 42.0974L23.9999 35.0348C27.2482 33.0352 29.2447 29.372 29.2447 25.4116L29.2447 13.9216C29.2447 5.37423 25.9736 0.675117 21.2937 2.4011Z" fill="url(#fill8)" transform="matrix(1 0 0 1.01587 582 577)"/></g></svg>