<svg width="48" height="48" xmlns="http://www.w3.org/2000/svg" xmlns:xlink="http://www.w3.org/1999/xlink" xml:space="preserve" overflow="hidden"><defs><linearGradient x1="41.6477" y1="12.811" x2="42.4791" y2="37.6194" gradientUnits="userSpaceOnUse" spreadMethod="pad" id="fill0"><stop offset="0" stop-color="#033E9A"/><stop offset="1" stop-color="#0055C6"/></linearGradient><radialGradient cx="0" cy="0" r="1" gradientUnits="userSpaceOnUse" spreadMethod="pad" id="fill1" gradientTransform="matrix(0.417788 9.40025 -8.67052 0.385356 36.6343 21.7935)"><stop offset="0" stop-color="#041642" stop-opacity="0.5"/><stop offset="1" stop-color="#041642" stop-opacity="0"/></radialGradient><radialGradient cx="0" cy="0" r="1" gradientUnits="userSpaceOnUse" spreadMethod="pad" id="fill2" gradientTransform="matrix(16.4971 -7.22992 8.22611 18.7703 25.4688 41.5555)"><stop offset="0" stop-color="#000000" stop-opacity="0.2"/><stop offset="1" stop-color="#000000" stop-opacity="0"/></radialGradient><radialGradient cx="0" cy="0" r="1" gradientUnits="userSpaceOnUse" spreadMethod="pad" id="fill3" gradientTransform="matrix(-9.01334 15.7223 -25.8329 -14.8097 26.7434 2.65144)"><stop offset="0" stop-color="#51DEFF"/><stop offset="0.348958" stop-color="#1ABAFD"/><stop offset="1" stop-color="#247FE0"/></radialGradient><radialGradient cx="0" cy="0" r="1" gradientUnits="userSpaceOnUse" spreadMethod="pad" id="fill4" gradientTransform="matrix(21.8343 -17.8387 11.6742 14.289 -2.35229 33.3186)"><stop offset="0" stop-color="#000000" stop-opacity="0.36"/><stop offset="0.47515" stop-color="#000000" stop-opacity="0.36"/><stop offset="1" stop-color="#000000" stop-opacity="0"/></radialGradient><linearGradient x1="12.1085" y1="15.5094" x2="23.3038" y2="45.0967" gradientUnits="userSpaceOnUse" spreadMethod="pad" id="fill5"><stop offset="0" stop-color="#59E7FD"/><stop offset="0.58722" stop-color="#23D4F9"/><stop offset="1" stop-color="#32BBF2"/></linearGradient><radialGradient cx="0" cy="0" r="1" gradientUnits="userSpaceOnUse" spreadMethod="pad" id="fill6" gradientTransform="matrix(-1.17249 7.6185 -11.1722 -1.71942 14.0906 20.4828)"><stop offset="0" stop-color="#CCF9FF" stop-opacity="0.25"/><stop offset="0.177241" stop-color="#CCF9FF" stop-opacity="0.25"/><stop offset="1" stop-color="#4FE3FF" stop-opacity="0.03"/></radialGradient><linearGradient x1="20.069" y1="42.1316" x2="15.0823" y2="30.278" gradientUnits="userSpaceOnUse" spreadMethod="pad" id="fill7"><stop offset="0" stop-color="#08B0F8"/><stop offset="1" stop-color="#52E5FF" stop-opacity="0"/></linearGradient></defs><g transform="translate(-660 -204)"><path d="M45.2 32.4374 32.5622 10.5432C34.0361 13.9459 34.6567 17.582 34.4707 21.1598L32.285 20.9972C32.285 20.9972 33.7323 21.4473 34.0521 22.1382 35.0481 24.2525 31.7479 31.2206 30.6075 32.9309 28.7576 35.7055 25.1761 39.2816 24.2411 39.2816 23.9492 39.2816 23.8242 39.1794 23.8242 39.1794 20.4269 41.2813 16.415 43.3381 12.2925 43.5919L38.7614 43.5919C44.4846 43.5919 48.0616 37.395 45.2 32.4374Z" fill="url(#fill0)" transform="matrix(1 0 0 1.02083 660 204)"/><path d="M45.2 32.4374 32.5622 10.5432C34.0361 13.9459 34.6567 17.582 34.4707 21.1598L32.285 20.9972C32.285 20.9972 33.7323 21.4473 34.0521 22.1382 35.0481 24.2525 31.7479 31.2206 30.6075 32.9309 28.7576 35.7055 25.1761 39.2816 24.2411 39.2816 23.9492 39.2816 23.8242 39.1794 23.8242 39.1794 20.4269 41.2813 16.415 43.3381 12.2925 43.5919L38.7614 43.5919C44.4846 43.5919 48.0616 37.395 45.2 32.4374Z" fill="url(#fill1)" transform="matrix(1 0 7.08345e-18 1.02083 660 204)"/><path d="M45.2 32.4374 32.5622 10.5432C34.0361 13.9459 34.6567 17.582 34.4707 21.1598L32.285 20.9972C32.285 20.9972 33.7323 21.4473 34.0521 22.1382 35.0481 24.2525 31.7479 31.2206 30.6075 32.9309 28.7576 35.7055 25.1761 39.2816 24.2411 39.2816 23.9492 39.2816 23.8242 39.1794 23.8242 39.1794 20.4269 41.2813 16.415 43.3381 12.2925 43.5919L38.7614 43.5919C44.4846 43.5919 48.0616 37.395 45.2 32.4374Z" fill="url(#fill2)" transform="matrix(1 0 -5.66676e-17 1.02083 660 204)"/><path d="M43.3461 29.4175C43.605 29.7755 43.8524 30.1382 44.0884 30.5053L30.6053 7.14674C27.7437 2.18917 20.5896 2.18918 17.7281 7.14675L4.47387 30.1088C6.50833 27.0721 10.9651 24.7861 14.1913 23.1963 14.1913 23.1963 14.0796 22.5196 14.3436 22.0522 14.6076 21.5847 14.9701 21.4562 15.3185 21.3158 25.1774 17.3432 36.8359 20.4156 43.3461 29.4175Z" fill="url(#fill3)" transform="matrix(1 0 -5.66676e-17 1.02083 660 204)"/><path d="M43.3461 29.4175C43.605 29.7755 43.8524 30.1382 44.0884 30.5053L30.6053 7.14674C27.7437 2.18917 20.5896 2.18918 17.7281 7.14675L4.47387 30.1088C6.50833 27.0721 10.9651 24.7861 14.1913 23.1963 14.1913 23.1963 14.0796 22.5196 14.3436 22.0522 14.6076 21.5847 14.9701 21.4562 15.3185 21.3158 25.1774 17.3432 36.8359 20.4156 43.3461 29.4175Z" fill="url(#fill4)" transform="matrix(1 5.66676e-17 0 1.02083 660 204)"/><path d="M36.1605 43.5873 9.5713 43.5873C3.84808 43.5873 0.271057 37.3904 3.13267 32.4328L16.6054 9.09232C12.6563 16.7757 13.0665 26.3497 18.4753 33.8287 22.7857 39.7889 29.353 43.1497 36.1605 43.5873Z" fill="url(#fill5)" transform="matrix(1 0 0 1.02083 660 204)"/><path d="M36.1605 43.5873 9.5713 43.5873C3.84808 43.5873 0.271057 37.3904 3.13267 32.4328L16.6054 9.09232C12.6563 16.7757 13.0665 26.3497 18.4753 33.8287 22.7857 39.7889 29.353 43.1497 36.1605 43.5873Z" fill="url(#fill6)" transform="matrix(1 0 2.83338e-17 1.02083 660 204)"/><path d="M36.1605 43.5873 9.5713 43.5873C3.84808 43.5873 0.271057 37.3904 3.13267 32.4328L16.6054 9.09232C12.6563 16.7757 13.0665 26.3497 18.4753 33.8287 22.7857 39.7889 29.353 43.1497 36.1605 43.5873Z" fill="url(#fill7)" transform="matrix(1 0 0 1.02083 660 204)"/></g></svg>